<svg width="72" height="73" viewBox="0 0 72 73" fill="none" xmlns="http://www.w3.org/2000/svg">
<path d="M67.8577 32.1338C66.5723 17.6664 54.2326 5.1979 39.7593 3.80473C38.5756 3.69116 37.9103 3.38262 37.8896 1.99134C37.8726 0.882104 37.1168 0.0416588 35.9181 0.00190803C34.5705 -0.0435214 33.7544 0.846139 33.7487 2.08031C33.7412 3.57569 32.8892 3.65519 31.8036 3.8142C16.5613 6.04592 6.02531 16.6291 3.79372 31.9388C3.6354 33.0197 3.57508 33.898 2.07479 33.898C0.845907 33.898 -0.0418289 34.7157 0.00152127 36.071C0.0411019 37.273 0.877949 38.0623 1.98055 38.0453C3.63917 38.0207 3.6599 39.0353 3.81257 40.2032C5.63705 53.9853 15.3946 64.7275 28.9764 67.5971C31.781 68.1896 34.1747 68.7083 34.7043 72.0019C35.4507 72.0019 36.1989 72.0019 36.9453 72.0019C37.4975 68.748 39.8253 68.2332 42.6506 67.6388C56.2644 64.7729 65.9956 54.0838 67.7824 40.0783C68.0651 37.8617 69.7369 38.157 70.9073 37.6913C71.2146 37.5683 71.4897 37.3941 71.6933 37.1064C71.6933 36.3568 71.6933 35.6053 71.6933 34.8558C70.766 33.4645 68.0915 34.7649 67.8577 32.1338ZM62.2147 38.0131C63.96 38.0112 63.8922 38.8744 63.7131 40.1199C62.0432 51.7177 53 61.2919 41.4782 63.624C40.8393 63.7527 40.1947 63.8681 39.5633 64.029C38.3645 64.3319 37.9499 63.9022 37.8934 62.6491C37.8443 61.5512 37.1526 60.7373 35.9087 60.6843C34.6572 60.6313 33.7958 61.4187 33.7977 62.4825C33.7996 64.2373 32.9382 64.1634 31.6999 63.9836C20.1669 62.3141 10.6317 53.2282 8.2946 41.6512C8.16455 41.0096 8.04581 40.3641 7.89126 39.7281C7.59911 38.5318 8.01377 38.1021 9.26904 38.051C10.366 38.0055 11.1727 37.3071 11.2236 36.0578C11.2745 34.8009 10.4904 33.9358 9.42924 33.9434C7.6632 33.9547 7.7612 33.0594 7.93461 31.8309C9.54799 20.3997 18.6233 10.6949 29.8943 8.37418C30.7161 8.20571 31.536 8.03724 32.3577 7.86688C33.3077 7.68138 33.6865 7.99371 33.7148 9.02533C33.7506 10.2595 34.3613 11.2041 35.739 11.2627C37.1225 11.3195 37.9065 10.4242 37.9009 9.19569C37.8934 7.36905 39.0092 7.85742 39.9515 7.98803C51.3432 9.57617 61.0178 18.7113 63.3098 30.0232C63.4587 30.7576 63.5812 31.4978 63.7565 32.2246C64.0429 33.4153 63.6566 33.862 62.3881 33.9055C61.2893 33.9434 60.4845 34.6438 60.426 35.8912C60.3695 37.1499 61.1554 38.0131 62.2147 38.0131Z" fill="white"/>
<path d="M53.5051 33.8431C52.0953 33.8544 50.9305 34.0267 50.4235 32.0183C49.9202 30.0289 51.0285 29.5916 52.2329 28.8799C53.3694 28.206 54.1836 27.2728 53.3939 25.891C52.5627 24.4392 51.3414 24.4808 50.0446 25.3004C49.809 25.45 49.5301 25.5484 49.3284 25.7339C48.1429 26.8242 47.4361 26.0462 46.5898 25.1774C45.7624 24.3256 45.0104 23.7066 45.998 22.4119C46.9913 21.1115 47.8696 19.4949 45.8698 18.3592C44.0133 17.303 43.1407 18.8495 42.5036 20.2199C41.8854 21.5525 41.0391 21.6358 39.8065 21.2477C38.6869 20.8938 37.7388 20.6628 37.9367 19.0766C38.1252 17.5547 38.0159 15.7943 35.9634 15.7054C33.6941 15.605 33.5282 17.4392 33.7186 19.0804C33.9052 20.6723 32.959 20.8919 31.8432 21.2477C30.6087 21.6415 29.7699 21.5506 29.1498 20.218C28.5128 18.8476 27.6439 17.3238 25.7761 18.3573C23.9535 19.3662 24.5491 20.8805 25.5009 22.1809C26.3905 23.3981 26.1436 24.1458 25.0938 25.2039C24.0364 26.2677 23.2825 26.4797 22.0819 25.5995C20.7795 24.6455 19.2999 24.0682 18.2708 25.891C17.3058 27.6022 18.6044 28.5354 19.8955 29.1525C21.213 29.7809 21.6201 30.504 21.1923 31.9729C20.7946 33.3377 20.2763 34.021 18.7402 33.8582C17.1475 33.6897 15.5511 34.0134 15.634 36.0956C15.7075 37.9753 17.2417 38.297 18.7062 38.0869C20.4987 37.8295 20.787 38.8763 21.2488 40.2183C21.9066 42.1358 20.4478 42.4103 19.4149 43.0577C18.4782 43.6426 17.7525 44.377 18.0371 45.5544C18.2746 46.533 18.9663 47.1558 20.2593 47.2277C20.5891 47.0876 21.115 46.9116 21.5956 46.6485C22.7811 46.003 23.6236 45.1682 25.1296 46.6939C26.5997 48.1855 25.9589 49.0392 25.2106 50.2298C24.4002 51.5189 24.3154 52.7569 25.7629 53.603C27.3141 54.5116 28.2452 53.4534 28.8954 52.2477C29.5626 51.0116 30.1092 50.1939 31.847 50.6501C33.5263 51.0911 33.8091 51.9353 33.7073 53.4194C33.5998 54.9734 34.0842 56.342 35.9558 56.2625C37.6446 56.1906 38.0536 54.8693 37.9556 53.444C37.8557 51.9846 38.0856 51.0911 39.7876 50.6539C41.499 50.2128 42.0908 50.9605 42.7562 52.2231C43.3932 53.4345 44.313 54.504 45.8717 53.6124C47.323 52.7834 47.2608 51.5511 46.4598 50.2469C45.736 49.0695 45.0273 48.2063 46.5163 46.7053C48.0109 45.2004 48.8704 45.9273 50.0409 46.6485C51.3338 47.4473 52.5495 47.54 53.3901 46.0693C54.1799 44.6875 53.3788 43.7789 52.2498 43.0728C51.1077 42.3592 49.8562 41.9995 50.4122 39.9666C50.9418 38.0301 52.0199 38.0756 53.4712 38.104C54.9432 38.1324 56.1099 37.555 56.0402 35.8533C55.9723 34.3276 54.8527 33.8317 53.5051 33.8431ZM35.9087 47.1293C29.9565 47.1936 24.8374 42.1585 24.7262 36.1316C24.615 30.1576 29.5871 24.9919 35.6015 24.8272C41.646 24.6625 46.9197 29.8453 46.9272 35.9631C46.9347 41.9655 41.9042 47.0649 35.9087 47.1293Z" fill="white"/>
<path d="M35.9351 29.7203C32.435 29.6711 29.6719 32.3174 29.5946 35.7965C29.5155 39.3154 32.1259 42.1245 35.577 42.2343C39.1977 42.3497 42.0399 39.6221 42.0588 36.0142C42.0757 32.4991 39.4219 29.7696 35.9351 29.7203ZM35.9313 38.157C34.6478 37.979 33.7619 37.3033 33.7167 36.0445C33.6733 34.7782 34.5158 33.9131 35.7579 33.8639C37.0188 33.8147 37.8745 34.6646 37.9311 35.912C37.9914 37.1935 37.0829 37.8617 35.9313 38.157Z" fill="white"/>
</svg>
