<svg width="82" height="73" viewBox="0 0 82 73" fill="none" xmlns="http://www.w3.org/2000/svg">
<path d="M77.6307 9.61643C61.2646 9.6445 44.8985 9.64918 28.5323 9.61643C26.1144 9.61175 23.2726 10.5102 21.3905 9.19526C19.7133 8.02069 20.1187 5.09127 19.5736 2.94803C19.0798 0.991964 18.1806 -0.0281845 16.1028 -0.00010706C11.8494 0.0560479 7.60064 0.03265 3.34721 0.0092521C1.65144 -0.00010706 0.258474 0.533365 0.30972 2.43795C0.360966 4.34722 1.82847 4.74967 3.48698 4.73095C6.5664 4.69819 9.65514 4.79178 12.7299 4.69351C14.3279 4.64204 15.1851 4.97429 15.5717 6.7806C18.0362 18.3345 20.6125 29.865 23.2074 41.3908C23.5661 42.9865 23.417 43.9926 21.9589 45.1251C19.5969 46.9641 18.7863 49.6128 19.8578 52.5796C20.8221 55.261 22.4806 57.1609 25.574 57.2499C26.4079 58.1062 27.6472 57.3809 28.5463 57.9986C23.8876 61.8452 22.9698 66.1317 26.0539 69.6086C28.6441 72.5287 33.1491 72.8469 36.0376 70.1889C37.9337 68.4434 38.7722 66.2393 38.325 63.586C37.929 61.2275 36.3311 59.7488 34.1694 58.1015C34.1741 58.0875 34.1741 58.0735 34.1834 58.0594C34.23 57.9331 34.2905 57.8254 34.3558 57.7272C43.813 57.7272 52.5947 57.7272 61.3718 57.7272C61.9168 57.7272 62.4246 57.8067 62.6576 58.4104C58.9213 60.2495 57.5656 62.7998 58.3343 66.5435C58.9539 69.5525 61.7864 71.8829 64.9497 71.9858C68.3878 72.0982 71.2529 69.8473 72.0868 66.3797C72.8881 63.0572 71.4346 60.3243 67.8893 58.4712C68.0198 58.0688 68.2341 57.8676 68.4903 57.7693C68.686 57.7412 68.8816 57.7131 69.0773 57.6804C69.7109 57.6804 70.4144 57.8535 70.8057 57.2592C72.2965 56.8942 72.604 55.7664 72.1986 54.5544C71.6116 52.8043 70.0323 52.7949 68.495 52.7949C55.3061 52.8043 42.1125 52.8043 28.9237 52.7996C28.0711 52.7996 27.2186 52.8089 26.3707 52.7434C24.9498 52.6358 24.2649 51.7186 24.2882 50.3943C24.3115 49.0512 25.0756 48.2136 26.4871 48.1434C27.335 48.1013 28.1876 48.1013 29.0401 48.1013C41.9122 48.0966 54.7843 48.0124 67.6564 48.1621C70.7964 48.1996 72.3244 47.0577 72.986 44.0581C73.6988 40.8433 74.6258 37.6658 75.6275 34.5211C77.8357 27.572 79.1588 20.3514 81.954 13.5847C81.954 12.7283 81.954 11.8767 81.954 11.0203C80.8126 9.63514 79.266 9.61175 77.6307 9.61643ZM31.1319 67.222C29.8787 67.1144 28.9982 66.2721 29.0029 64.9056C29.0122 63.3895 29.9626 62.4957 31.3788 62.5191C32.8044 62.5425 33.6523 63.4737 33.6569 65.032C33.4753 66.5014 32.5761 67.3437 31.1319 67.222ZM65.3363 67.2267C63.9061 67.3016 62.9184 66.464 62.8532 64.9618C62.7833 63.4269 63.7896 62.7343 65.164 62.4489C66.5662 62.7062 67.5213 63.3988 67.4887 64.9478C67.4607 66.3236 66.6082 67.1612 65.3363 67.2267ZM69.6457 38.1759C68.2247 43.1877 68.2108 43.183 62.9604 43.183C52.427 43.183 41.8936 43.1175 31.3648 43.2392C29.1939 43.2626 28.2342 42.7666 27.7776 40.5016C26.203 32.668 24.3488 24.8953 22.7043 17.0757C22.4853 16.0368 21.288 14.296 24.032 14.3054C41.3625 14.3662 58.693 14.3381 76.3729 14.3381C74.0854 22.4432 71.8772 30.3142 69.6457 38.1759Z" fill="white"/>
</svg>
