<svg width="82" height="71" viewBox="0 0 82 71" fill="none" xmlns="http://www.w3.org/2000/svg">
<path d="M80.2685 60.0924C76.3095 56.1788 72.4768 52.1344 68.4053 48.3425C66.6932 46.7472 66.528 45.7396 67.8132 43.6439C72.7246 35.6492 71.7538 25.8434 65.6857 18.6176C59.8608 11.6833 50.2307 9.14697 41.5852 12.271C33.0338 15.3605 27.2778 23.548 27.2479 32.6606C27.2227 40.5543 31.4249 47.9615 38.3216 51.7419C45.5557 55.7083 52.932 55.7496 59.9939 51.4596C62.1696 50.1375 63.1473 50.5231 64.685 52.1482C68.5063 56.1926 72.5296 60.0465 76.4472 64.0014C77.7646 65.3304 79.1669 66.2945 80.8377 64.729C82.6531 63.0213 81.7144 61.5201 80.2685 60.0924ZM48.9914 49.1344C40.1209 49.1321 32.7148 41.7319 32.7148 32.8649C32.7125 23.7569 40.0888 16.3728 49.152 16.4118C58.0661 16.4485 65.3965 23.7707 65.4332 32.6767C65.4699 41.7365 58.0798 49.1367 48.9914 49.1344Z" fill="white"/>
<path d="M3.32877 5.47443C4.01041 5.44689 4.69434 5.46984 5.37597 5.46984C17.2024 5.46984 29.0312 5.46984 40.8577 5.46984C53.2533 5.46984 65.649 5.45377 78.0446 5.48591C79.9495 5.4905 81.6066 5.11406 81.742 2.93577C81.8774 0.80338 80.4774 5.42788e-06 78.4463 0.00230078C53.4277 0.0160729 28.407 0.0160729 3.38844 5.4279e-06C1.37797 -0.00228993 -0.0472681 0.723043 0.0307641 2.87838C0.0996161 4.83173 1.47895 5.54788 3.32877 5.47443Z" fill="white"/>
<path d="M61.706 65.5118C52.0392 65.5485 42.3724 65.5279 32.7056 65.5279C22.9263 65.5279 13.1447 65.5416 3.36547 65.5187C1.3504 65.5141 -0.0610662 66.2647 0.0284414 68.4177C0.111064 70.3711 1.50417 71 3.34711 71C22.9079 70.9816 42.4688 70.9793 62.0296 71C63.8726 71.0023 65.2932 70.3802 65.3643 68.4361C65.4562 66.042 63.7968 65.5049 61.706 65.5118Z" fill="white"/>
<path d="M3.00052 21.8472C8.23098 21.8403 13.4637 21.8472 18.6942 21.8449C20.6129 21.8449 21.781 20.8877 21.7007 18.9665C21.6273 17.2335 20.4729 16.3865 18.7217 16.3934C16.1053 16.4026 13.4913 16.3957 10.8749 16.3957C8.25852 16.3957 5.64444 16.3934 3.02806 16.3957C1.11168 16.398 -0.0542105 17.346 0.0261168 19.2741C0.0972638 21.0163 1.25398 21.8495 3.00052 21.8472Z" fill="white"/>
<path d="M3.2852 32.7593C1.4216 32.7479 0.0721044 33.4548 0.0284982 35.4013C-0.0219932 37.5658 1.43078 38.2797 3.42749 38.2406C5.81436 38.1947 8.20352 38.2292 10.5927 38.2292C13.0943 38.2292 15.5982 38.1833 18.0975 38.2452C20.0369 38.2934 21.6274 37.7747 21.6962 35.5987C21.7651 33.4433 20.2962 32.7433 18.2972 32.757C13.294 32.7938 8.28844 32.7915 3.2852 32.7593Z" fill="white"/>
<path d="M3.22545 54.6157C8.34345 54.5882 13.4614 54.5951 18.5771 54.6111C20.4752 54.618 21.7237 53.771 21.6984 51.8384C21.6732 49.9011 20.3788 49.1161 18.4968 49.1413C15.9952 49.1757 13.4936 49.1505 10.992 49.1505C8.37558 49.1505 5.7615 49.1666 3.14513 49.1459C1.24711 49.1321 0.000887679 49.9791 0.0261334 51.9187C0.0513791 53.8629 1.34809 54.6249 3.22545 54.6157Z" fill="white"/>
</svg>
