<svg width="77" height="71" viewBox="0 0 77 71" fill="none" xmlns="http://www.w3.org/2000/svg">
<path d="M68.1139 -0.000130558C48.5265 0.085661 28.9373 0.0334401 9.34987 0.0409002C3.35883 0.0446303 0.903883 2.47664 0.898291 8.4205C0.885242 22.1061 0.881514 35.7918 0.900155 49.4774C0.907611 55.0818 3.36815 57.6108 8.94351 57.6817C14.0603 57.7469 19.1808 57.7563 24.2977 57.6649C26.1431 57.6313 26.9782 58.0155 26.0443 59.9458C25.9585 60.123 25.8877 60.3076 25.8262 60.4941C23.9118 66.3895 23.9118 66.3858 17.8965 66.5611C16.3084 66.6077 14.4611 66.4921 14.476 68.7805C14.4909 71.0092 16.245 71.0017 17.8872 70.9999C31.7669 70.9943 45.6447 70.9943 59.5244 70.9999C61.1536 70.9999 62.9263 71.0484 62.9803 68.8234C63.0362 66.5387 61.2039 66.6096 59.6027 66.5592C53.5445 66.3709 53.6694 66.328 51.5873 60.5557C50.6944 58.0789 51.2294 57.5642 53.7067 57.65C58.3277 57.8103 62.9617 57.5735 67.5827 57.732C71.6966 57.8738 74.8338 56.5999 76.5636 52.6647C76.5636 36.8959 76.5636 21.127 76.5636 5.35998C75.0892 1.4546 72.2241 -0.0187809 68.1139 -0.000130558ZM47.1695 66.5797C44.3156 66.5387 41.4599 66.5667 38.6061 66.5667C35.8491 66.5667 33.0922 66.5051 30.339 66.5909C28.7359 66.6413 28.6446 66.1918 29.0827 64.7222C31.1834 57.7022 31.1257 57.6854 38.4048 57.6854C38.6023 57.6854 38.7981 57.6854 38.9957 57.6854C46.5786 57.6854 46.5171 57.7022 48.4687 64.9478C48.8826 66.4828 48.4016 66.5984 47.1695 66.5797ZM72.1403 50.4826C72.0452 52.4167 71.1337 53.2895 69.1615 53.2783C62.3727 53.2354 55.5819 53.2615 48.7931 53.2615C35.6068 53.2615 22.4224 53.2653 9.23617 53.2522C8.17739 53.2503 7.04964 53.504 6.13626 52.6703C5.22101 51.8348 5.20983 50.7046 5.38132 49.6564C5.59569 48.3472 6.7719 48.8358 7.55666 48.8339C17.986 48.806 28.4172 48.8153 38.8484 48.8153C48.9832 48.8153 59.118 48.7929 69.2528 48.847C70.3955 48.8526 72.2633 47.9835 72.1403 50.4826ZM24.4225 31.0322C22.9537 29.874 23.4682 29.0851 24.5717 28.0425C25.5783 27.0914 26.2959 26.1905 27.5299 27.787C28.5402 29.0944 29.9345 29.5122 31.437 28.5312C33.3122 27.3077 36.7364 27.7553 36.4345 24.1483C36.2686 22.177 37.3926 22.2292 38.7869 22.1826C40.3415 22.1304 41.2381 22.4586 41.0126 24.2677C40.7684 26.2316 42.0303 27.1137 43.6875 27.5595C45.7025 28.1003 47.684 30.3981 49.8053 27.9101C50.9069 26.6176 51.632 26.6885 52.7784 27.9064C53.867 29.0608 54.6126 29.8572 52.9536 31.1217C51.7122 32.0673 51.4307 33.4306 52.3143 34.7846C53.5464 36.6739 53.1307 40.1298 56.6388 39.9004C59.1106 39.74 58.6259 41.2451 58.762 42.6924C58.9428 44.619 57.733 44.4026 56.5345 44.3933C54.2846 44.3746 52.0328 44.3877 49.7792 44.3877C49.9357 36.8884 46.2487 31.9554 40.1346 31.2728C33.3569 30.5156 27.597 35.4449 27.7145 42.2709C27.7499 44.3131 27.1608 44.5425 25.5223 44.4082C24.2529 44.3038 22.9425 44.5369 21.6954 44.3429C20.6143 44.1751 18.7577 45.434 18.6962 42.8733C18.6515 41.0008 18.6887 39.8034 21.2313 39.8407C24.4468 39.8874 23.9659 36.4949 25.1831 34.6727C26.1114 33.2814 25.6137 31.9703 24.4225 31.0322ZM42.8654 44.4194C41.5084 44.2534 40.1141 44.3877 38.7347 44.3877C37.6517 44.3877 36.5687 44.3896 35.4875 44.3877C32.1639 44.384 31.4332 43.3563 32.4715 40.1485C33.3849 37.3267 36.4606 35.2789 39.3107 35.5959C42.6007 35.9633 45.0855 38.6266 45.2887 41.8755C45.3987 43.6808 44.942 44.673 42.8654 44.4194ZM69.6816 44.3896C69.5846 44.3746 69.4858 44.3877 69.3871 44.3877C63.3401 44.4138 63.2693 44.4175 63.0978 38.5408C63.0288 36.1965 61.9495 35.4318 59.7816 35.4877C58.8105 35.512 57.5522 36.0305 57.0452 34.503C56.6258 33.2404 57.5895 32.6995 58.2718 32.0747C60.1582 30.3477 60.0165 28.7755 58.1823 27.0988C56.6575 25.7056 55.1942 24.236 53.7999 22.7123C52.1353 20.892 50.5826 20.6999 48.8453 22.6153C48.191 23.337 47.6746 24.4729 46.2114 23.7753C44.9196 23.1599 45.311 22.1136 45.3632 21.2389C45.5142 18.6968 44.4424 17.6207 41.8905 17.755C39.6332 17.8744 37.3628 17.8203 35.0998 17.7681C32.9711 17.7196 32.0968 18.7155 32.0894 20.8155C32.0856 21.8562 32.7399 23.1934 31.0791 23.8257C29.4406 24.4505 29.0398 22.9771 28.283 22.2758C26.8477 20.9461 25.554 20.8603 24.1765 22.218C22.4243 23.945 20.7 25.7019 18.946 27.4289C17.4827 28.8706 17.4249 30.2619 18.8882 31.7726C19.6487 32.5578 20.9946 33.1397 20.3459 34.6578C19.7457 36.0659 18.4744 35.4989 17.5013 35.4803C15.2104 35.4374 14.3977 36.4855 14.3586 38.7105C14.2579 44.3914 14.1889 44.2571 8.48682 44.4474C5.98714 44.5313 5.20796 43.9998 5.2527 41.3122C5.43724 30.385 5.31981 19.454 5.33472 8.52308C5.34031 4.87134 5.73362 4.48528 9.42816 4.47968C19.1734 4.46663 28.9205 4.47595 38.6657 4.47595C48.5097 4.47595 58.3538 4.46476 68.1978 4.48155C71.6631 4.48714 72.1104 4.93475 72.116 8.39999C72.1328 19.6256 72.0638 30.8513 72.1757 42.0751C72.198 44.134 71.4785 44.6563 69.6816 44.3896Z" fill="white"/>
<path d="M60.9373 8.93163C57.3975 8.90366 54.1261 12.2383 54.2584 15.739C54.3907 19.2509 57.4776 22.1734 60.9988 22.1174C64.52 22.0633 67.5546 19.001 67.5285 15.5301C67.5043 12.1003 64.3671 8.95961 60.9373 8.93163ZM63.0064 15.767C62.9038 17.024 62.0911 17.7346 60.913 17.7234C59.5877 17.7104 58.7713 16.9158 58.7768 15.5133C58.7824 14.0474 59.7256 13.5345 60.8963 13.4096C62.3782 13.6203 63.1219 14.357 63.0064 15.767Z" fill="white"/>
</svg>
