<svg width="72" height="71" viewBox="0 0 72 71" fill="none" xmlns="http://www.w3.org/2000/svg">
<path d="M62.4298 -0.000157794C44.4857 0.13928 26.5397 0.0601395 8.59565 0.063908C2.52783 0.063908 0.398866 2.1762 0.398866 8.20592C0.395134 26.8208 0.406329 45.4338 0.389536 64.0468C0.385804 67.3311 1.44375 69.8542 4.79113 70.9056C25.2766 70.9358 45.7638 70.9678 66.2493 70.998C68.7775 70.7869 69.7011 68.5993 71.0856 66.9788C71.0856 46.1272 71.0856 25.2776 71.0856 4.42604C69.1824 0.979672 66.2605 -0.0284221 62.4298 -0.000157794ZM66.9732 63.5569C66.9881 66.2024 66.0589 67.137 63.415 67.1257C44.9354 67.0428 26.4558 67.0504 7.97804 67.1201C5.51322 67.1295 4.50005 66.3155 4.51312 63.7491C4.58029 50.267 4.58402 36.7849 4.50005 23.3047C4.48886 21.4054 5.099 21.0342 6.8268 21.0473C16.479 21.1246 26.133 21.085 35.787 21.085C45.3477 21.085 54.9103 21.1303 64.4711 21.0455C66.2661 21.0304 67.0105 21.2848 66.9937 23.3914C66.8874 36.7793 66.8967 50.169 66.9732 63.5569ZM66.5086 16.2273C65.1092 18.1116 61.0099 16.7568 58.1047 16.7889C50.6618 16.8699 43.2188 16.8152 35.774 16.8152C26.1255 16.8152 16.4752 16.7757 6.8268 16.851C5.10833 16.8642 4.36198 16.5175 4.50005 14.5974C4.67358 12.1931 4.58215 9.76611 4.52991 7.35234C4.48513 5.29093 5.27066 4.29979 7.44627 4.30356C26.2841 4.34313 45.122 4.34501 63.9617 4.30167C66.0944 4.29602 66.9919 5.18352 66.9434 7.2845C66.8762 10.3465 67.9752 14.2526 66.5086 16.2273Z" fill="white"/>
<path d="M42.8008 27.5803C41.6141 26.9736 40.6607 27.4956 40.0823 28.6506C39.6699 29.4759 39.334 30.3408 38.9721 31.1925C35.3205 39.7905 31.6597 48.3848 28.0287 56.9941C27.1368 59.1102 27.7955 60.7664 29.5569 60.8211C30.9134 60.7514 31.4003 59.6641 31.8836 58.5185C34.4996 52.2928 37.136 46.0765 39.7688 39.8584C41.1029 36.706 42.45 33.5592 43.7841 30.4068C44.3085 29.165 43.9185 28.1513 42.8008 27.5803Z" fill="white"/>
<path d="M17.5016 43.0654C19.7014 41.3922 21.8211 39.6134 23.9743 37.878C25.1647 36.9189 25.9801 35.7676 24.7859 34.36C23.6963 33.0768 22.5114 33.6628 21.4106 34.5597C18.3356 37.064 15.242 39.5418 12.1614 42.0385C11.5103 42.5661 10.8945 43.1314 10.9094 44.0829C10.9001 45.0326 11.514 45.5998 12.1652 46.1274C15.2439 48.6241 18.3375 51.1019 21.4106 53.6061C22.5133 54.5049 23.7037 55.0815 24.7878 53.8002C25.9782 52.3926 25.161 51.2414 23.9687 50.2822C21.8155 48.5487 19.6958 46.768 17.496 45.0967C16.4679 44.3166 16.4828 43.8399 17.5016 43.0654Z" fill="white"/>
<path d="M59.1254 41.8689C56.1475 39.3948 53.1024 37.0018 50.0871 34.5729C49.5087 34.1075 48.9153 33.676 48.141 33.6082C47.3014 33.7909 46.5252 34.1094 46.2695 35.0233C45.9952 35.9993 46.2677 36.8359 47.0831 37.4936C49.3818 39.342 51.6339 41.2508 53.9663 43.0541C54.9458 43.8116 55.0634 44.2826 54.0036 45.0872C51.8018 46.7586 49.6897 48.5487 47.5327 50.2785C46.3404 51.2338 45.4989 52.3644 46.6819 53.7851C47.7566 55.0759 48.9489 54.5162 50.0573 53.6174C53.0632 51.1754 56.1139 48.7899 59.0937 46.3177C61.1648 44.5992 61.1723 43.5704 59.1254 41.8689Z" fill="white"/>
<path d="M60.2355 8.44346C56.3844 8.41896 52.5332 8.42273 48.6821 8.4378C47.3573 8.44345 46.2639 8.93149 46.1911 10.4351C46.109 12.1065 47.2323 12.6812 48.6858 12.7057C50.6114 12.7396 52.5369 12.7133 54.4625 12.7114C56.3881 12.7095 58.3137 12.7321 60.2393 12.7019C61.6107 12.6793 62.6257 11.9784 62.6257 10.5708C62.6239 9.16137 61.6088 8.45099 60.2355 8.44346Z" fill="white"/>
<path d="M10.9561 8.46607C9.70783 8.43592 8.86259 9.26312 8.81221 10.5011C8.76183 11.7598 9.59961 12.6153 10.8218 12.6699C12.0719 12.7264 12.7623 11.854 13.0421 10.5181C12.8014 9.44967 12.2249 8.4981 10.9561 8.46607Z" fill="white"/>
<path d="M19.2405 8.46984C17.9941 8.42273 17.147 9.26313 17.0947 10.5011C17.0425 11.7598 17.8803 12.6153 19.1024 12.6718C20.3525 12.7283 21.0448 11.8578 21.3023 10.6198C21.1381 9.40068 20.4775 8.51695 19.2405 8.46984Z" fill="white"/>
<path d="M27.525 8.47172C26.2749 8.41519 25.5826 9.28385 25.3027 10.6217C25.5378 11.692 26.12 12.6398 27.385 12.6756C28.6352 12.7095 29.4786 11.8766 29.5308 10.6424C29.5849 9.3856 28.749 8.52636 27.525 8.47172Z" fill="white"/>
</svg>
