<svg width="125" height="70" viewBox="0 0 125 70" fill="none" xmlns="http://www.w3.org/2000/svg">
<path d="M2.68468 20.4441H0.285522V50.9445H6.14318V37.8768H19.018V32.7605H6.14318V25.563H20.9238V20.4441H6.14318H2.68468Z" fill="white"/>
<path d="M28.8024 20.4441H26.4007V50.9445H28.8024H32.2583H48.8145V45.8256H32.2583V37.8768H47.6776V32.7605H32.2583V25.563H48.8145V20.4441H32.2583H28.8024Z" fill="white"/>
<path d="M60.8881 45.8256V20.4441H55.033V50.9445H57.4321H60.8881H76.137V45.8256H60.8881Z" fill="white"/>
<path d="M86.4599 20.4441H80.6023V50.9445H86.4599V20.4441Z" fill="white"/>
<path d="M1.89829 69.6344C1.09941 69.3915 0.465807 69.0684 0 68.6652L0.716241 67.0599C1.17203 67.4206 1.7305 67.7136 2.39165 67.9415C3.05279 68.1694 3.71895 68.2821 4.3851 68.2821C5.21153 68.2821 5.8276 68.1493 6.23581 67.8839C6.64402 67.6184 6.84687 67.2703 6.84687 66.8346C6.84687 66.5165 6.73417 66.2535 6.50628 66.0482C6.27838 65.8428 5.99038 65.6801 5.63978 65.5649C5.28917 65.4497 4.81334 65.3169 4.2098 65.1667C3.36333 64.9663 2.67714 64.7635 2.15123 64.5631C1.62782 64.3628 1.17704 64.0472 0.801389 63.619C0.425738 63.1907 0.237912 62.6097 0.237912 61.8785C0.237912 61.2649 0.405703 60.7064 0.738781 60.2031C1.07186 59.6997 1.57523 59.299 2.2489 59.0035C2.92257 58.708 3.74399 58.5577 4.72068 58.5577C5.39936 58.5577 6.06551 58.6429 6.72165 58.8132C7.37779 58.9834 7.94627 59.2264 8.4221 59.5444L7.77097 61.1497C7.28262 60.8642 6.77424 60.6463 6.24583 60.4986C5.71491 60.3508 5.20152 60.2757 4.70566 60.2757C3.88924 60.2757 3.28319 60.4134 2.88751 60.6889C2.48931 60.9644 2.29147 61.33 2.29147 61.7858C2.29147 62.1039 2.40417 62.3643 2.63206 62.5647C2.85996 62.765 3.14796 62.9253 3.49856 63.0405C3.84917 63.1582 4.325 63.2884 4.92854 63.4387C5.75498 63.629 6.43365 63.8293 6.96207 64.0347C7.49048 64.2401 7.94377 64.5556 8.32193 64.9788C8.69758 65.4021 8.8854 65.9756 8.8854 66.6943C8.8854 67.3079 8.71761 67.8638 8.38453 68.3622C8.05146 68.8606 7.54558 69.2563 6.8669 69.5543C6.18823 69.8498 5.36179 70 4.38761 70C3.52862 70 2.69718 69.8773 1.89829 69.6344Z" fill="white"/>
<path d="M16.2381 69.2612C15.3265 68.7678 14.6128 68.0842 14.0944 67.2101C13.576 66.3361 13.3156 65.3594 13.3156 64.2776C13.3156 63.1982 13.576 62.219 14.0944 61.345C14.6128 60.471 15.329 59.7873 16.2381 59.2964C17.1497 58.8031 18.1715 58.5576 19.3059 58.5576C20.4404 58.5576 21.4622 58.8031 22.3738 59.2964C23.2853 59.7898 23.9991 60.4685 24.5175 61.3375C25.0359 62.2065 25.2963 63.1857 25.2963 64.2776C25.2963 65.3695 25.0359 66.3487 24.5175 67.2177C23.9991 68.0867 23.2828 68.7678 22.3738 69.2587C21.4622 69.7521 20.4404 69.9975 19.3059 69.9975C18.1715 70 17.1497 69.7521 16.2381 69.2612ZM21.3069 67.686C21.9004 67.3529 22.3662 66.8871 22.7043 66.2886C23.0424 65.69 23.2127 65.0214 23.2127 64.2776C23.2127 63.5363 23.0424 62.8651 22.7043 62.2666C22.3662 61.668 21.8979 61.2022 21.3069 60.8692C20.7134 60.5361 20.0472 60.3683 19.3059 60.3683C18.5647 60.3683 17.896 60.5361 17.305 60.8692C16.7114 61.2022 16.2456 61.6705 15.9075 62.2666C15.5695 62.8651 15.3992 63.5363 15.3992 64.2776C15.3992 65.0188 15.5695 65.69 15.9075 66.2886C16.2456 66.8871 16.7114 67.3529 17.305 67.686C17.8985 68.019 18.5647 68.1868 19.3059 68.1868C20.0472 68.1868 20.7134 68.0216 21.3069 67.686Z" fill="white"/>
<path d="M30.6657 58.7179H32.7318V68.0917H38.5469V69.8397H30.6657V58.7179Z" fill="white"/>
<path d="M44.3945 68.7052C43.5355 67.8412 43.1072 66.6041 43.1072 64.9938V58.7179H45.1733V64.9162C45.1733 67.0975 46.115 68.1893 48.0007 68.1893C49.8765 68.1893 50.8131 67.0975 50.8131 64.9162V58.7179H52.8466V64.9938C52.8466 66.6041 52.4209 67.8412 51.5669 68.7052C50.7154 69.5692 49.5209 70 47.9832 70C46.4505 70 45.2535 69.5667 44.3945 68.7052Z" fill="white"/>
<path d="M60.9682 60.466H57.2818V58.7179H66.7207V60.466H63.0343V69.8397H60.9682V60.466Z" fill="white"/>
<path d="M71.4539 58.7179H73.5199V69.8397H71.4539V58.7179Z" fill="white"/>
<path d="M81.8294 69.2612C80.9178 68.7678 80.2041 68.0842 79.6857 67.2101C79.1673 66.3361 78.9068 65.3594 78.9068 64.2776C78.9068 63.1982 79.1673 62.219 79.6857 61.345C80.2041 60.471 80.9203 59.7873 81.8294 59.2964C82.7409 58.8031 83.7627 58.5576 84.8972 58.5576C86.0317 58.5576 87.0534 58.8031 87.965 59.2964C88.8766 59.7898 89.5903 60.4685 90.1087 61.3375C90.6271 62.2065 90.8876 63.1857 90.8876 64.2776C90.8876 65.3695 90.6271 66.3487 90.1087 67.2177C89.5903 68.0867 88.8741 68.7678 87.965 69.2587C87.0534 69.7521 86.0317 69.9975 84.8972 69.9975C83.7627 70 82.7409 69.7521 81.8294 69.2612ZM86.8982 67.686C87.4917 67.3529 87.9575 66.8871 88.2956 66.2886C88.6337 65.69 88.804 65.0214 88.804 64.2776C88.804 63.5363 88.6337 62.8651 88.2956 62.2666C87.9575 61.668 87.4892 61.2022 86.8982 60.8692C86.3046 60.5361 85.6385 60.3683 84.8972 60.3683C84.1559 60.3683 83.4872 60.5361 82.8962 60.8692C82.3027 61.2022 81.8369 61.6705 81.4988 62.2666C81.1607 62.8651 80.9904 63.5363 80.9904 64.2776C80.9904 65.0188 81.1607 65.69 81.4988 66.2886C81.8369 66.8871 82.3027 67.3529 82.8962 67.686C83.4897 68.019 84.1559 68.1868 84.8972 68.1868C85.6385 68.1868 86.3046 68.0216 86.8982 67.686Z" fill="white"/>
<path d="M106.142 58.7179V69.8397H104.441L98.308 62.3091V69.8397H96.2595V58.7179H97.9599L104.093 66.2485V58.7179H106.142Z" fill="white"/>
<path d="M113.269 69.6343C112.47 69.3914 111.836 69.0684 111.37 68.6652L112.087 67.0599C112.543 67.4205 113.101 67.7135 113.762 67.9414C114.423 68.1693 115.089 68.282 115.756 68.282C116.582 68.282 117.198 68.1493 117.606 67.8838C118.015 67.6184 118.217 67.2703 118.217 66.8345C118.217 66.5164 118.105 66.2535 117.877 66.0481C117.649 65.8428 117.361 65.68 117.01 65.5648C116.66 65.4496 116.184 65.3169 115.58 65.1666C114.734 64.9663 114.048 64.7634 113.522 64.5631C112.998 64.3627 112.548 64.0472 112.172 63.6189C111.796 63.1907 111.608 62.6097 111.608 61.8784C111.608 61.2648 111.776 60.7064 112.109 60.203C112.442 59.6996 112.946 59.2989 113.619 59.0034C114.293 58.7079 115.114 58.5576 116.091 58.5576C116.77 58.5576 117.436 58.6428 118.092 58.8131C118.748 58.9834 119.317 59.2263 119.793 59.5444L119.141 61.1496C118.653 60.8641 118.145 60.6463 117.616 60.4985C117.085 60.3508 116.572 60.2756 116.076 60.2756C115.26 60.2756 114.654 60.4134 114.258 60.6888C113.86 60.9643 113.662 61.33 113.662 61.7857C113.662 62.1038 113.775 62.3642 114.003 62.5646C114.23 62.7649 114.518 62.9252 114.869 63.0404C115.22 63.1581 115.695 63.2883 116.299 63.4386C117.125 63.6289 117.804 63.8293 118.333 64.0346C118.861 64.24 119.314 64.5555 119.692 64.9788C120.068 65.402 120.256 65.9755 120.256 66.6943C120.256 67.3078 120.088 67.8638 119.755 68.3621C119.422 68.8605 118.916 69.2562 118.237 69.5542C117.559 69.8497 116.732 70 115.758 70C114.897 70 114.068 69.8773 113.269 69.6343Z" fill="white"/>
<path d="M109.698 13.7174C105.678 11.8292 101.882 10.0436 101.882 7.83725C101.882 7.03335 102.13 6.80045 102.21 6.72282C102.625 6.33214 103.525 6.21944 103.963 6.21944C104.005 6.21944 104.043 6.21944 104.075 6.22195C104.075 6.22195 104.101 6.22195 104.143 6.22195C104.576 6.22195 106.965 6.11176 106.965 3.70008C106.965 1.04798 104.504 0.937788 104.504 0.937788C104.434 0.932779 104.253 0.920258 103.99 0.920258C102.913 0.920258 100.462 1.12561 98.626 2.81855C97.6944 3.67754 96.585 5.24525 96.585 7.83474C96.585 13.4069 102.107 16.0014 107.446 18.5107C114.779 21.9567 119.587 24.6789 119.587 30.8546C119.587 35.2172 117.534 37.9294 114.982 39.5372C113.206 40.6541 111.193 41.2401 109.455 41.4705C108.826 41.5532 108.233 41.5933 107.699 41.5933C102.643 41.5933 98.2178 38.6557 98.1652 38.6181C97.7094 38.3101 97.1935 38.1598 96.6801 38.1598C95.8337 38.1598 95.0022 38.5655 94.4888 39.3168C93.6649 40.5264 93.9755 42.1743 95.1826 42.9982C95.4155 43.1585 100.963 46.8899 107.697 46.8899C108.934 46.8899 110.174 46.7697 111.388 46.5418C113.327 46.1762 115.202 45.5226 116.908 44.5834C121.518 42.0415 124.887 37.426 124.887 30.8546C124.884 20.8548 116.109 16.7277 109.698 13.7174Z" fill="white"/>
<path d="M114.063 37.1381L108.143 21.6312L107.692 20.4516L107.694 20.4441H107.689H105.653H101.428H101.423L101.426 20.4516L89.7857 50.9445H96.0516L104.559 28.6609L108.521 39.0414C109.758 38.9262 112.127 38.528 114.063 37.1381Z" fill="white"/>
<path d="M117.809 46.95L116.905 44.5859C115.2 45.5251 113.324 46.1787 111.386 46.5443L112.297 48.931L113.066 50.942H119.332L117.809 46.95Z" fill="white"/>
</svg>
