<svg width="71" height="72" viewBox="0 0 71 72" fill="none" xmlns="http://www.w3.org/2000/svg">
<path d="M70.7833 11.788C70.7473 4.13733 66.6052 0.0316517 58.8972 0.013565C43.2652 -0.00452167 27.6332 -0.00452167 12.0012 0.013565C4.2752 0.0316517 0.169092 4.11924 0.151083 11.8242C0.115065 22.0431 0.133074 32.2621 0.151083 42.4811C0.151083 48.5763 0.0610368 54.6715 0.205111 60.7667C0.313166 65.8129 3.91501 70.4792 8.66945 70.7143C17.602 71.1484 26.5526 70.9495 35.5032 70.9495C36.926 70.9495 37.8444 70.0813 37.8985 68.6344C37.9525 67.1875 37.034 66.3555 35.6833 66.1203C34.8909 65.9756 34.0445 66.0299 33.2161 66.0299C26.2285 66.0299 19.2229 66.048 12.2353 66.0299C7.03061 66.0118 5.10362 64.1308 5.10362 59.0123C5.0496 48.4678 5.13964 37.9413 5.01358 27.3968C4.97756 25.1179 5.73395 24.738 7.787 24.7561C16.9357 24.8646 26.0844 24.8104 35.2511 24.8104C44.706 24.8104 54.1788 24.8466 63.6337 24.7742C65.3265 24.7561 65.9749 25.154 65.9028 26.9627C65.7588 30.4715 65.8668 33.9803 65.8668 37.5072C65.8668 39.4063 66.1009 41.2512 68.5322 41.1607C70.8013 41.0703 70.8194 39.2255 70.8194 37.5072C70.7833 28.9161 70.8194 20.3611 70.7833 11.788ZM57.3304 19.8546C50.0367 19.8546 42.7429 19.8546 35.4492 19.8546C26.3005 19.8546 17.1518 19.7461 8.02112 19.927C5.49983 19.9812 4.79747 19.1493 5.0496 16.798C5.22969 15.0617 5.0496 13.2892 5.08562 11.5348C5.17566 6.99502 7.15668 4.9874 11.749 4.9874C25.6162 4.95123 39.4833 4.96931 53.3684 4.96931C55.6376 4.96931 57.8887 4.89697 60.1579 5.00549C63.5976 5.15018 65.6147 7.21206 65.8488 10.6304C66.4611 19.8546 66.4611 19.8546 57.3304 19.8546Z" fill="white"/>
<path d="M68.4961 48.9922C61.4005 44.8684 54.3048 40.7447 47.1912 36.6571C45.4983 35.6804 43.7694 35.9155 42.2927 37.0731C40.906 38.1583 40.3297 39.6957 40.6358 41.4682C42.0225 49.4805 43.4093 57.511 44.85 65.5053C45.2102 67.4949 46.4528 68.8514 48.4518 69.2854C50.3608 69.7014 51.8556 68.8875 53.0262 67.4225C53.9807 66.2107 54.9532 64.9989 55.8176 63.7328C56.6821 62.4668 57.3484 62.3221 58.2489 63.7328C59.5275 65.7224 60.9142 67.6396 62.2649 69.5748C63.2194 70.9494 64.5161 71.5101 65.9568 70.4973C67.4156 69.4663 67.2175 68.0736 66.263 66.6991C64.6241 64.3478 63.0033 61.9784 61.1664 59.3378C63.5436 58.5601 65.5966 57.9089 67.6137 57.2036C69.4146 56.5705 70.5312 55.3406 70.7113 53.3692C70.9094 51.452 70.171 49.9508 68.4961 48.9922ZM55.9077 56.1184C53.4944 57.8004 51.9276 60.7485 49.5684 63.6786C48.2537 56.0822 47.0111 49.0284 45.6964 41.432C52.3959 45.3206 58.591 48.9199 65.1104 52.7181C61.7427 53.8756 58.411 54.382 55.9077 56.1184Z" fill="white"/>
<path d="M13.5498 9.97931C11.965 9.83462 10.9745 10.7028 10.8304 12.2401C10.6863 13.7052 11.6408 14.6095 12.9735 14.7723C14.5043 14.9712 15.4048 14.0307 15.765 12.3306C15.5308 11.1911 15.0266 10.1059 13.5498 9.97931Z" fill="white"/>
<path d="M21.474 9.96126C19.9972 9.92508 19.1328 10.8837 19.0427 12.204C18.9346 13.7414 19.9792 14.5914 21.492 14.8627C22.8066 14.6276 23.7971 14.0127 23.8512 12.5296C23.8872 10.9379 23.0948 9.99743 21.474 9.96126Z" fill="white"/>
<path d="M29.6683 9.94312C28.4077 9.9612 27.4892 10.6304 27.3271 12.0773C27.147 13.7232 28.1195 14.6999 29.5783 14.7903C31.091 14.8808 32.1356 13.8498 32.1176 12.3125C32.1356 10.9921 31.3252 10.0516 29.6683 9.94312Z" fill="white"/>
</svg>
