<?xml version="1.0" encoding="utf-8"?>
<!-- Generator: Adobe Illustrator 24.0.0, SVG Export Plug-In . SVG Version: 6.00 Build 0)  -->
<svg version="1.1" id="Layer_1" xmlns="http://www.w3.org/2000/svg" xmlns:xlink="http://www.w3.org/1999/xlink" x="0px" y="0px"
	 viewBox="0 0 800 800" style="enable-background:new 0 0 800 800;" xml:space="preserve">
<style type="text/css">
	.st0{fill:#FFFFFF;}
</style>
<g>
	<g>
		<g>
			<g>
				<polygon class="st0" points="189.03,330.8 179.44,330.8 179.44,452.59 202.83,452.59 202.83,400.42 254.24,400.42 
					254.24,379.98 202.83,379.98 202.83,351.24 261.86,351.24 261.86,330.8 202.83,330.8 				"/>
				<polygon class="st0" points="293.31,330.8 283.73,330.8 283.73,452.59 293.31,452.59 307.12,452.59 373.23,452.59 
					373.23,432.15 307.12,432.15 307.12,400.42 368.68,400.42 368.68,379.98 307.12,379.98 307.12,351.24 373.23,351.24 
					373.23,330.8 307.12,330.8 				"/>
				<polygon class="st0" points="421.44,432.15 421.44,330.8 398.05,330.8 398.05,452.59 407.63,452.59 421.44,452.59 
					482.32,452.59 482.32,432.15 				"/>
			</g>
		</g>
		<g>
			<g>
				<rect x="500.16" y="330.8" class="st0" width="23.39" height="121.79"/>
			</g>
		</g>
		<g>
			<g>
				<g>
					<path class="st0" d="M185.88,527.22c-3.19-0.97-5.72-2.26-7.58-3.87l2.86-6.41c1.82,1.44,4.05,2.61,6.69,3.52
						c2.64,0.91,5.3,1.36,7.96,1.36c3.3,0,5.76-0.53,7.39-1.59c1.63-1.06,2.44-2.45,2.44-4.19c0-1.27-0.45-2.32-1.36-3.14
						c-0.91-0.82-2.06-1.47-3.46-1.93c-1.4-0.46-3.3-0.99-5.71-1.59c-3.38-0.8-6.12-1.61-8.22-2.41c-2.09-0.8-3.89-2.06-5.39-3.77
						s-2.25-4.03-2.25-6.95c0-2.45,0.67-4.68,2-6.69c1.33-2.01,3.34-3.61,6.03-4.79c2.69-1.18,5.97-1.78,9.87-1.78
						c2.71,0,5.37,0.34,7.99,1.02c2.62,0.68,4.89,1.65,6.79,2.92l-2.6,6.41c-1.95-1.14-3.98-2.01-6.09-2.6
						c-2.12-0.59-4.17-0.89-6.15-0.89c-3.26,0-5.68,0.55-7.26,1.65c-1.59,1.1-2.38,2.56-2.38,4.38c0,1.27,0.45,2.31,1.36,3.11
						c0.91,0.8,2.06,1.44,3.46,1.9c1.4,0.47,3.3,0.99,5.71,1.59c3.3,0.76,6.01,1.56,8.12,2.38c2.12,0.82,3.92,2.08,5.43,3.77
						c1.5,1.69,2.25,3.98,2.25,6.85c0,2.45-0.67,4.67-2,6.66c-1.33,1.99-3.35,3.57-6.06,4.76s-6.01,1.78-9.9,1.78
						C192.39,528.68,189.08,528.19,185.88,527.22z"/>
				</g>
				<g>
					<path class="st0" d="M243.15,525.73c-3.64-1.97-6.49-4.7-8.56-8.19c-2.07-3.49-3.11-7.39-3.11-11.71s1.04-8.22,3.11-11.71
						c2.07-3.49,4.93-6.22,8.56-8.18c3.64-1.97,7.72-2.95,12.25-2.95c4.53,0,8.61,0.98,12.25,2.95c3.64,1.97,6.49,4.68,8.56,8.15
						s3.11,7.38,3.11,11.74c0,4.36-1.04,8.27-3.11,11.74s-4.93,6.19-8.56,8.15c-3.64,1.97-7.72,2.95-12.25,2.95
						C250.87,528.68,246.78,527.7,243.15,525.73z M263.39,519.45c2.37-1.33,4.23-3.19,5.58-5.58c1.35-2.39,2.03-5.06,2.03-8.03
						c0-2.96-0.68-5.64-2.03-8.03c-1.35-2.39-3.22-4.25-5.58-5.58c-2.37-1.33-5.03-2-7.99-2c-2.96,0-5.63,0.67-7.99,2
						c-2.37,1.33-4.23,3.2-5.58,5.58c-1.35,2.39-2.03,5.07-2.03,8.03c0,2.96,0.68,5.64,2.03,8.03c1.35,2.39,3.21,4.25,5.58,5.58
						c2.37,1.33,5.03,2,7.99,2C258.35,521.45,261.02,520.78,263.39,519.45z"/>
				</g>
				<g>
					<path class="st0" d="M300.76,483.63H309v37.43h23.22v6.98h-31.47V483.63z"/>
				</g>
				<g>
					<path class="st0" d="M355.58,523.51c-3.43-3.45-5.14-8.39-5.14-14.82v-25.06h8.25v24.75c0,8.71,3.76,13.07,11.29,13.07
						c7.49,0,11.23-4.36,11.23-13.07v-24.75h8.12v25.06c0,6.43-1.7,11.37-5.11,14.82c-3.4,3.45-8.17,5.17-14.31,5.17
						C363.78,528.68,359,526.96,355.58,523.51z"/>
				</g>
				<g>
					<path class="st0" d="M421.75,490.61h-14.72v-6.98h37.69v6.98H430v37.43h-8.25V490.61z"/>
				</g>
				<g>
					<path class="st0" d="M463.63,483.63h8.25v44.41h-8.25V483.63z"/>
				</g>
				<g>
					<path class="st0" d="M505.06,525.73c-3.64-1.97-6.49-4.7-8.56-8.19c-2.07-3.49-3.11-7.39-3.11-11.71s1.04-8.22,3.11-11.71
						c2.07-3.49,4.93-6.22,8.56-8.18c3.64-1.97,7.72-2.95,12.25-2.95c4.53,0,8.61,0.98,12.25,2.95c3.64,1.97,6.49,4.68,8.56,8.15
						s3.11,7.38,3.11,11.74c0,4.36-1.04,8.27-3.11,11.74s-4.93,6.19-8.56,8.15c-3.64,1.97-7.72,2.95-12.25,2.95
						C512.78,528.68,508.69,527.7,505.06,525.73z M525.3,519.45c2.37-1.33,4.23-3.19,5.58-5.58c1.35-2.39,2.03-5.06,2.03-8.03
						c0-2.96-0.68-5.64-2.03-8.03c-1.35-2.39-3.22-4.25-5.58-5.58c-2.37-1.33-5.03-2-7.99-2c-2.96,0-5.63,0.67-7.99,2
						c-2.37,1.33-4.23,3.2-5.58,5.58c-1.35,2.39-2.03,5.07-2.03,8.03c0,2.96,0.68,5.64,2.03,8.03c1.35,2.39,3.21,4.25,5.58,5.58
						c2.37,1.33,5.03,2,7.99,2C520.26,521.45,522.93,520.78,525.3,519.45z"/>
				</g>
				<g>
					<path class="st0" d="M602.13,483.63v44.41h-6.79l-24.49-30.07v30.07h-8.18v-44.41h6.79l24.49,30.07v-30.07H602.13z"/>
				</g>
				<g>
					<path class="st0" d="M630.59,527.22c-3.19-0.97-5.72-2.26-7.58-3.87l2.86-6.41c1.82,1.44,4.05,2.61,6.69,3.52
						c2.64,0.91,5.3,1.36,7.96,1.36c3.3,0,5.76-0.53,7.39-1.59c1.63-1.06,2.44-2.45,2.44-4.19c0-1.27-0.45-2.32-1.36-3.14
						c-0.91-0.82-2.06-1.47-3.46-1.93c-1.4-0.46-3.3-0.99-5.71-1.59c-3.38-0.8-6.12-1.61-8.22-2.41c-2.09-0.8-3.89-2.06-5.39-3.77
						s-2.25-4.03-2.25-6.95c0-2.45,0.67-4.68,2-6.69c1.33-2.01,3.34-3.61,6.03-4.79c2.69-1.18,5.97-1.78,9.87-1.78
						c2.71,0,5.37,0.34,7.99,1.02c2.62,0.68,4.89,1.65,6.79,2.92l-2.6,6.41c-1.95-1.14-3.98-2.01-6.09-2.6
						c-2.12-0.59-4.17-0.89-6.15-0.89c-3.26,0-5.68,0.55-7.26,1.65c-1.59,1.1-2.38,2.56-2.38,4.38c0,1.27,0.45,2.31,1.36,3.11
						c0.91,0.8,2.06,1.44,3.46,1.9c1.4,0.47,3.3,0.99,5.71,1.59c3.3,0.76,6.01,1.56,8.12,2.38c2.12,0.82,3.92,2.08,5.43,3.77
						c1.5,1.69,2.25,3.98,2.25,6.85c0,2.45-0.67,4.67-2,6.66c-1.33,1.99-3.35,3.57-6.06,4.76s-6.01,1.78-9.9,1.78
						C637.09,528.68,633.78,528.19,630.59,527.22z"/>
				</g>
			</g>
		</g>
		<g>
			<path class="st0" d="M616.34,303.94c-16.05-7.54-31.21-14.67-31.21-23.48c0-3.21,0.99-4.14,1.31-4.45c1.66-1.56,5.25-2.01,7-2.01
				c0.17,0,0.32,0,0.45,0.01c0,0,0.1,0,0.27,0c1.73,0,11.27-0.44,11.27-10.07c0-10.59-9.83-11.03-9.83-11.03
				c-0.28-0.02-1-0.07-2.05-0.07c-4.3,0-14.09,0.82-21.42,7.58c-3.72,3.43-8.15,9.69-8.15,20.03c0,22.25,22.05,32.61,43.37,42.63
				c29.28,13.76,48.48,24.63,48.48,49.29c0,17.42-8.2,28.25-18.39,34.67c-7.09,4.46-15.13,6.8-22.07,7.72
				c-2.51,0.33-4.88,0.49-7.01,0.49c-20.19,0-37.86-11.73-38.07-11.88c-1.82-1.23-3.88-1.83-5.93-1.83c-3.38,0-6.7,1.62-8.75,4.62
				c-3.29,4.83-2.05,11.41,2.77,14.7c0.93,0.64,23.08,15.54,49.97,15.54c4.94,0,9.89-0.48,14.74-1.39
				c7.74-1.46,15.23-4.07,22.04-7.82c18.41-10.15,31.86-28.58,31.86-54.82C676.98,332.44,641.93,315.97,616.34,303.94z"/>
		</g>
		<g>
			<path class="st0" d="M633.76,397.46l-23.64-61.92l-1.8-4.71l0.01-0.03h-0.02h-8.13h-16.87h-0.02l0.01,0.03l-46.48,121.76h25.02
				l33.97-88.98l15.82,41.45C616.57,404.61,626.04,403.02,633.76,397.46z"/>
		</g>
		<g>
			<path class="st0" d="M648.72,436.64l-3.61-9.44c-6.81,3.75-14.3,6.36-22.04,7.82l3.64,9.53l3.07,8.03h25.02L648.72,436.64z"/>
		</g>
	</g>
</g>
</svg>
